<svg xmlns="http://www.w3.org/2000/svg" viewBox="0 0 1464.85 330.26"><defs><style>.cls-1{fill:#fff;}</style></defs><g id="Layer_2" data-name="Layer 2"><g id="Layer_1-2" data-name="Layer 1"><path class="cls-1" d="M370.56,162.21c0-38.41,28.77-61.52,59.37-61.52,29.93,0,47.72,17.62,53,38.24l-18.79,6.32c-3.49-14.3-14.47-25.77-34.25-25.77-19.46,0-38.91,14.13-38.91,42.73,0,27.6,19,42.23,39.07,42.23,19.79,0,31.1-12.63,35.09-25.94l18.29,6c-5.32,19.95-23.28,39.07-53.38,39.07C398.33,223.56,370.56,200.62,370.56,162.21Z"/><path class="cls-1" d="M518.72,221.07H499.43V100.69h19.29v47.22c5.49-7.15,14.63-10.15,23.11-10.15,20,0,29.6,14.3,29.6,32.1v51.21H552.15V173.18c0-10-4.49-18-16.63-18-10.65,0-16.46,8-16.8,18.29Z"/><path class="cls-1" d="M613.34,174.68l20.78-3.16c4.66-.66,6-3,6-5.82,0-6.82-4.66-12.3-15.3-12.3-10.14,0-15.8,6.48-16.63,14.63l-17.62-4c1.49-14,14.13-26.44,34.08-26.44,24.94,0,34.42,14.13,34.42,30.26V208.1a72.86,72.86,0,0,0,1,13h-18c-.16-.5-.83-3.82-.83-10.31-3.82,6.15-11.8,12.8-24.94,12.8-17,0-27.44-11.64-27.44-24.44C588.89,184.65,599.54,176.67,613.34,174.68Zm26.77,12.8v-3.66L619,187c-6,1-10.81,4.33-10.81,11,0,5.48,4.16,10.47,11.81,10.47C630.8,208.43,640.11,203.28,640.11,187.48Z"/><path class="cls-1" d="M690.82,99a12.63,12.63,0,0,1,12.64,12.64A12.56,12.56,0,1,1,690.82,99Zm-9.47,122.05v-81h19.12v81Z"/><path class="cls-1" d="M743.7,221.07H724.41v-81H743.2V150.9c5.32-9.31,15-13.14,23.95-13.14,19.79,0,29.26,14.3,29.26,32.1v51.21H777.12V173.18c0-10-4.49-18-16.62-18-11,0-16.8,8.48-16.8,19.13Z"/><path class="cls-1" d="M818.86,221.07V100.69h19.29V221.07Z"/><path class="cls-1" d="M871.57,99a12.64,12.64,0,0,1,12.64,12.64A12.56,12.56,0,1,1,871.57,99Zm-9.48,122.05v-81h19.12v81Z"/><path class="cls-1" d="M924.45,221.07H905.16v-81H924V150.9c5.32-9.31,15-13.14,23.94-13.14,19.79,0,29.27,14.3,29.27,32.1v51.21H957.87V173.18c0-10-4.49-18-16.63-18-11,0-16.79,8.48-16.79,19.13Z"/><path class="cls-1" d="M1042.17,174.35l33.92,46.72h-23.61L1028.71,188l-10,10.48v22.61H999.61V100.69h19.12v72.16l31.09-32.76h25.61Z"/><path class="cls-1" d="M1131,221.07V103.18h20v98.93h54v19Z"/><path class="cls-1" d="M1240.54,174.68l20.79-3.16c4.65-.66,6-3,6-5.82,0-6.82-4.65-12.3-15.29-12.3-10.15,0-15.8,6.48-16.63,14.63l-17.63-4c1.5-14,14.14-26.44,34.09-26.44,24.94,0,34.42,14.13,34.42,30.26V208.1a72.86,72.86,0,0,0,1,13h-18c-.17-.5-.83-3.82-.83-10.31-3.83,6.15-11.81,12.8-24.94,12.8-17,0-27.44-11.64-27.44-24.44C1216.1,184.65,1226.74,176.67,1240.54,174.68Zm26.77,12.8v-3.66L1246.2,187c-6,1-10.81,4.33-10.81,11,0,5.48,4.16,10.47,11.81,10.47C1258,208.43,1267.31,203.28,1267.31,187.48Z"/><path class="cls-1" d="M1308.55,221.07V100.69h19v49.38c3.66-6.32,13-12.14,25.44-12.14,24.28,0,37.41,18.46,37.41,42.23,0,24.45-14.47,42.9-38.07,42.9-11.48,0-20.29-5-25-12.8v10.81Zm40.57-66c-12.3,0-21.78,9.14-21.78,25.27,0,16,9.48,25.61,21.78,25.61,12.64,0,21.79-9.64,21.79-25.61C1370.91,164.2,1361.93,155.06,1349.12,155.06Z"/><path class="cls-1" d="M1417.64,194.47c.66,7.31,6.15,13.8,16.46,13.8,8,0,12.13-4.33,12.13-9.32,0-4.32-3-7.64-9.47-9l-12-2.66c-14.3-3.16-21.78-12.47-21.78-23.62,0-14.13,13-26.1,29.76-26.1,22.62,0,29.93,14.63,31.27,22.61l-16.3,4.66c-.66-4.66-4.16-12.14-15-12.14-6.81,0-11.63,4.32-11.63,9.31,0,4.33,3.15,7.48,8.14,8.48l12.31,2.5c15.29,3.32,23.27,12.63,23.27,24.6,0,12.31-10,25.94-30.59,25.94-23.44,0-32.42-15.29-33.42-24.44Z"/><path class="cls-1" d="M286.12,82,144.09.15a1.28,1.28,0,0,0-.92-.11,1.34,1.34,0,0,0-.65.25l-.39.3L.75,82.22a1.2,1.2,0,0,0-.62,1.06L0,247.19a1.23,1.23,0,0,0,.61,1.06l142,81.84a1.2,1.2,0,0,0,1.23,0l142-82L286,248h0l.13-.1a1.2,1.2,0,0,0,.48-.95l.12-163.91A1.25,1.25,0,0,0,286.12,82ZM17.89,255.39l136,63.27c-3.47,2.91-7.14,5.81-11,8.72Zm251-180.52-136-63.29q5.16-4.35,11-8.77Zm15.33,154-13-149.72q6.35,2.27,13.09,5ZM61.9,262.21,25.37,161.62,72.48,262.84c-3,0-6.13-.16-9.32-.41Zm13.18.43L33.36,173l51.5,89.35q-3.89.34-8,.45ZM93.2,57.34l98.16,8.51-102.61.08C90,63.16,91.46,60.37,93,57.57ZM211.64,67.61l41.72,89.64-51.5-89.36q4.32-.33,9-.35ZM87.45,262l-45.54-79,54.43,77.87c-2.49.45-5.06.84-7.71,1.15ZM199.27,68.29l45.55,79-54.5-78c2.34-.43,4.77-.78,7.28-1.07Zm-.15,193.59L108.2,262l94.4-8.33c-.94,2.53-2,5.12-3.19,7.75ZM187.75,69.94l48.14,68.87-56.13-67c2.34-.67,4.77-1.28,7.31-1.81ZM210.06,212l-45.89,21.43L210,207C210.05,208.52,210.07,210.19,210.06,212Zm-.12-13.52c-.09,1.42-.05,3.27,0,5.55l-61.21,35.34a1.48,1.48,0,0,0-.49.16l-3.4,2-1.47.85L81.77,206.78a1.79,1.79,0,0,0-.26-.2c-1.33-.8-2.82-1.65-4.43-2.57l-.13-.08V132.67a1.27,1.27,0,0,0,.09-.47c0-1.7,0-3.39,0-5.08l62-35.78a1.55,1.55,0,0,0,.46-.15c1.3-.73,2.69-1.54,4.11-2.38L205,124.25a1.61,1.61,0,0,0,.37.32c1.45.87,3,1.77,4.7,2.73v70.84A1.06,1.06,0,0,0,209.94,198.5Zm-73.8,47.93L93.57,216.57l47.23,27.27Q138.6,245.1,136.14,246.43ZM146.21,87.25c1.6-1,3.28-2,5-3L199,117.81ZM77.07,123.94c0-2,.09-4,.17-6l52.84-24.69Zm-2.7,78.51c-1.55-.9-3.19-1.86-4.91-2.91l4.91-56.1Zm142.82-71-4.58,52.45V128.78Q214.8,130,217.19,131.46ZM133.71,247.71c-1.81.95-3.73,1.9-5.74,2.85L78.53,209ZM153.61,83c1.76-1,3.6-2,5.52-2.95l49.05,41.22Zm-91.8,111.6L73,131l-5.87,67.05Q64.56,196.47,61.81,194.56ZM210,214.72c-.05,2-.15,4.11-.32,6.36L149.08,243.2Zm14.79-78.43-11.09,62.89,5.8-66.3C221.23,133.94,223,135.07,224.81,136.29ZM77.37,115.22q.16-3.16.43-6.33l59.83-21.83Zm84.15-36.39c2-1,4-1.89,6.21-2.79l49.7,49.77Zm-36,172.85c-2,.91-4.16,1.81-6.39,2.67L69.29,204.43Zm84-27.92c-.21,2.19-.49,4.48-.86,6.86l-68.82,18.5Zm23-81.89L214.38,209.5,227,137.81Q229.72,139.7,232.5,141.87ZM78.05,106.19q.35-3.37.84-6.77l67.34-18.1ZM59.6,193c-1.79-1.29-3.63-2.69-5.49-4.19l18.23-68.06Zm57,62.29c-2.28.83-4.66,1.63-7.13,2.37L60,198.58Zm91.56-22c-.43,2.38-.94,4.84-1.57,7.38l-76.26,13.51Zm32-84.83-26.2,72,20.6-76.87Q237.37,145.82,240.18,148.43ZM170.19,75c2.24-.87,4.58-1.7,7-2.46l49.48,59.06ZM79.31,96.78c.41-2.42.88-4.84,1.43-7.28l75.19-13.31Zm-32.86,85.3,26.3-72.25L52,187.1C50.19,185.54,48.32,183.87,46.45,182.08Zm201.28-26-35.34,75.81,29.72-81.68C244,152.09,245.87,154,247.73,156.13ZM81.36,86.92q1-3.89,2.22-7.78L166.7,71.8ZM38.94,174.23l35.4-75.92-29.81,81.9C42.66,178.34,40.79,176.35,38.94,174.23Zm68,84.16c-2.55.7-5.2,1.35-8,1.91L50.84,191.45Zm96.53-7.3-83.66,7.39,86.15-15.25c-.65,2.4-1.4,4.85-2.26,7.37Zm46-93q2.79,3.27,5.5,7L209.5,243.9Zm-165-81.53c.95-2.73,2-5.48,3.23-8.23l90.87-.07ZM37.2,172.19c-1.85-2.21-3.67-4.55-5.47-7.05l45.5-78.79ZM198,264.32q-2,4.23-4.55,8.59L95.33,264.4Zm58.5-97c1.78,2.56,3.52,5.27,5.22,8.16l-56.58,80.8ZM30.19,162.94c-1.77-2.58-3.51-5.31-5.19-8.2L81.54,74ZM192.12,275.23c-1.75,2.9-3.67,5.85-5.78,8.82L81.44,265.64Zm71-97.43c1.66,2.95,3.26,6.06,4.79,9.36l-68.55,81.69ZM214.32,67.58c3.39.08,6.91.29,10.58.66l36.45,100.41ZM94.53,55q2.61-4.4,5.74-8.83l105,18.43ZM23.66,152.4Q21.19,148,18.89,143L87.4,61.38ZM184.75,286.25q-3.24,4.42-7.06,8.93l-111-29.65ZM269,189.63q2.22,5,4.22,10.57l-81.36,81.36ZM227.6,68.53c3.63.43,7.4,1,11.31,1.74l29.71,111.24ZM101.85,44q3.25-4.44,7.09-8.93L220.05,64.73ZM17.77,140.56q-2.22-5-4.23-10.55L94.86,48.69ZM59.26,262.09q-5.49-.57-11.31-1.61L18.11,148.76Zm116.67,35.14c-2.6,3-5.38,5.95-8.38,8.94L51.13,263.9Zm98.19-94.48c1.27,3.72,2.47,7.63,3.57,11.73l-95,79.75Zm-32.55-132c3.85.79,7.83,1.73,12,2.85L275,195.84ZM110.72,33c2.61-2.95,5.41-5.93,8.43-8.92L235.59,66.35ZM12.64,127.45q-1.91-5.58-3.57-11.71l95-79.71ZM45.29,260q-5.84-1.16-12-2.83L11.75,134.44ZM121.08,22.18q4.55-4.39,9.72-8.86L251.86,69.66ZM30.69,256.41q-6.14-1.77-12.6-4.11L6.5,118.61Zm134.93,51.65q-4.53,4.43-9.72,8.86L34.79,260.56Zm112.75-91c1,4.09,2,8.36,2.83,12.84L171.63,306.66ZM256.13,74.36q6.06,1.73,12.53,4l11.57,133.35ZM8.39,113.13Q6.83,107,5.55,100.29L115.13,23.56Zm262.45-37a.64.64,0,0,0-.08-.14l.52.29ZM2.55,99.42l0,.15,0,.06Zm0,2,13,150Q9.17,249,2.44,245.94ZM281.69,232.58q1.19,6.66,2.07,13.92l-125.1,72.23Zm2.47-1.93a0,0,0,0,1,0,0v0ZM5.06,97.65Q3.87,91,3,83.74L128.06,11.53Z"/></g></g></svg>