<svg id="Layer_1" data-name="Layer 1" xmlns="http://www.w3.org/2000/svg" viewBox="0 0 780.51 229.38"><path d="M238.56,30.35h14v5.53a15.27,15.27,0,0,1,6-4.67,20.71,20.71,0,0,1,8.54-1.66,23,23,0,0,1,12.26,3.21,21.39,21.39,0,0,1,8.09,9.15,31.28,31.28,0,0,1,2.87,13.77,29.34,29.34,0,0,1-3.07,13.71,22.47,22.47,0,0,1-8.59,9.15A24.5,24.5,0,0,1,265.9,81.8a21,21,0,0,1-7.84-1.4,13.09,13.09,0,0,1-5.53-3.92v25h-14Zm16.58,35.53a12.4,12.4,0,0,0,17.52.47c.16-.15.32-.31.47-.47a14.87,14.87,0,0,0,3.42-10.2,15,15,0,0,0-3.42-10.3,12.39,12.39,0,0,0-17.51-.48l-.48.48a15,15,0,0,0-3.41,10.3A14.86,14.86,0,0,0,255.14,65.88Z" style="fill:#fff"/><path d="M308.3,78.44a24.23,24.23,0,0,1-9.54-9.35,28,28,0,0,1,0-26.83,24.14,24.14,0,0,1,9.54-9.34,29.84,29.84,0,0,1,27.54,0,24.14,24.14,0,0,1,9.54,9.34,28,28,0,0,1,0,26.83,24.23,24.23,0,0,1-9.54,9.35A29.84,29.84,0,0,1,308.3,78.44Zm4.63-12.61a12.62,12.62,0,0,0,17.85.43c.15-.14.29-.29.43-.43a14.62,14.62,0,0,0,3.52-10.15,14.75,14.75,0,0,0-3.52-10.25A12.62,12.62,0,0,0,313.36,45c-.15.14-.29.29-.43.44a14.75,14.75,0,0,0-3.52,10.25,14.62,14.62,0,0,0,3.52,10.15Z" style="fill:#fff"/><path d="M357.24,8.35h14V81h-14Z" style="fill:#fff"/><path d="M396.13,80.6,377.74,30.35H392L402.66,63l10.55-32.66h14.37L409.19,80.8l-7.13,20.7H388.69Z" style="fill:#fff"/><path d="M435.57,74.72a27.4,27.4,0,0,1-6.38-19,31.41,31.41,0,0,1,2.86-13.77,21.27,21.27,0,0,1,8.19-9.15,24,24,0,0,1,12.67-3.21,20.76,20.76,0,0,1,8.19,1.56,14.14,14.14,0,0,1,5.78,4.27v-5h14.06V84a16.39,16.39,0,0,1-5.22,12.72,19.76,19.76,0,0,1-13.87,4.77H436.33v-11h23.31a6.81,6.81,0,0,0,5.27-2.26A8.24,8.24,0,0,0,467,82.51V75.88a12.44,12.44,0,0,1-5.63,4.37,21.17,21.17,0,0,1-8.24,1.55A22.38,22.38,0,0,1,435.57,74.72Zm10.75-8.79a11.42,11.42,0,0,0,9,3.82,11.57,11.57,0,0,0,9-3.82,14.84,14.84,0,0,0,3.42-10.25,15,15,0,0,0-3.42-10.3,12.45,12.45,0,0,0-18,0A15.14,15.14,0,0,0,443,55.68a14.92,14.92,0,0,0,3.36,10.25Z" style="fill:#fff"/><path d="M502.35,78.44a24.19,24.19,0,0,1-9.55-9.35,28.07,28.07,0,0,1,0-26.83,24.1,24.1,0,0,1,9.55-9.34,29.82,29.82,0,0,1,27.53,0,24.1,24.1,0,0,1,9.55,9.34,28.07,28.07,0,0,1,0,26.83,24.19,24.19,0,0,1-9.55,9.35A29.82,29.82,0,0,1,502.35,78.44ZM507,65.83a12.62,12.62,0,0,0,17.85.43l.44-.43a14.67,14.67,0,0,0,3.52-10.15,14.75,14.75,0,0,0-3.52-10.25A12.62,12.62,0,0,0,507.41,45c-.15.14-.3.29-.44.44a14.75,14.75,0,0,0-3.52,10.25A14.62,14.62,0,0,0,507,65.83Z" style="fill:#fff"/><path d="M550.48,30.35h14.07v7a14.37,14.37,0,0,1,6.13-5.78,20,20,0,0,1,9.24-2.06,19.16,19.16,0,0,1,9.9,2.51,17.32,17.32,0,0,1,6.64,7,22.23,22.23,0,0,1,2.36,10.35V81H584.75V52.56A10.85,10.85,0,0,0,582,45a9.11,9.11,0,0,0-7-3,9.76,9.76,0,0,0-7.54,3.17,11.47,11.47,0,0,0-2.91,8.08V81H550.48Z" style="fill:#fff"/><path d="M246.42,216.45a29,29,0,0,1-10.2-21.33h15.47a15.77,15.77,0,0,0,5.77,11.39,20.88,20.88,0,0,0,13.43,4.08,19.21,19.21,0,0,0,11.64-3.32A9.91,9.91,0,0,0,287,199a9.71,9.71,0,0,0-2.64-7.31,15.2,15.2,0,0,0-6.54-3.65q-5.37-1.41-10.87-2.29a95,95,0,0,1-14.87-3.49,20.61,20.61,0,0,1-9.68-7,23.27,23.27,0,0,1-4-14.61,21.74,21.74,0,0,1,8.5-17.84,34,34,0,0,1,21.92-6.8,36.53,36.53,0,0,1,23.62,7.39,25.78,25.78,0,0,1,9.85,19.46H286.86a13.58,13.58,0,0,0-6.29-10.28,21.3,21.3,0,0,0-11.72-3.48,17.44,17.44,0,0,0-10.71,3,9.54,9.54,0,0,0-4.07,8,8.15,8.15,0,0,0,4.67,8.24,55.1,55.1,0,0,0,14.36,3.48,88,88,0,0,1,15.46,3.4,21.64,21.64,0,0,1,10.19,7.56A25.65,25.65,0,0,1,303,198.69a22.67,22.67,0,0,1-8.75,18.69q-8.76,7-23.36,7A36.63,36.63,0,0,1,246.42,216.45Z" style="fill:#fff"/><path d="M345.31,110.51v26.84h25.32v14.27H345.31v42.82A14.92,14.92,0,0,0,348.79,205a12.73,12.73,0,0,0,9.77,3.74h12.07V223H357.2a28.37,28.37,0,0,1-20.73-7.48A27.46,27.46,0,0,1,328.83,195V151.62h-17.5V137.35h17.5V110.51Z" style="fill:#fff"/><path d="M459.83,223H443.35V207.87a25.24,25.24,0,0,1-10.62,12.23,32.71,32.71,0,0,1-16.91,4.25,30,30,0,0,1-23.19-9.52A35.2,35.2,0,0,1,383.88,190V137.35h16.48V186.8a24.05,24.05,0,0,0,5.52,16.48,18.41,18.41,0,0,0,14.53,6.29,21,21,0,0,0,16.48-7.31,26.92,26.92,0,0,0,6.46-18.52V137.35h16.48Z" style="fill:#fff"/><path d="M494.92,218.66A36.94,36.94,0,0,1,480.82,203a56.31,56.31,0,0,1,0-45.7,36.86,36.86,0,0,1,14.1-15.63,41.15,41.15,0,0,1,22-5.7,33.87,33.87,0,0,1,16,3.83,28.26,28.26,0,0,1,11.22,10.11V101.5h16.48V223H544.11V210.24a27.72,27.72,0,0,1-11.22,10.28,33.55,33.55,0,0,1-15.8,3.83A41.55,41.55,0,0,1,494.92,218.66Zm5-16.91a24,24,0,0,0,19,8.15,24.29,24.29,0,0,0,19.12-8.15,31.39,31.39,0,0,0,7.22-21.58,31.39,31.39,0,0,0-7.22-21.58A24.29,24.29,0,0,0,519,150.44a24,24,0,0,0-19,8.15,31.62,31.62,0,0,0-7.14,21.58,31.62,31.62,0,0,0,7.14,21.58Z" style="fill:#fff"/><path d="M598.68,102.62v18.49H582.3V102.62Zm-16.34,34.73h16.48V223H582.34Z" style="fill:#fff"/><path d="M636.2,218.66a41.08,41.08,0,0,1-15.72-15.72,48.39,48.39,0,0,1,0-45.54,41,41,0,0,1,15.72-15.71,48.37,48.37,0,0,1,45.53,0,40.42,40.42,0,0,1,15.63,15.71,49,49,0,0,1,0,45.54,40.51,40.51,0,0,1-15.63,15.72A48.42,48.42,0,0,1,636.2,218.66Zm3-17.08a27.49,27.49,0,0,0,38.87.54l.55-.54a34.1,34.1,0,0,0,0-42.82,27.5,27.5,0,0,0-38.88-.54l-.54.54A34.1,34.1,0,0,0,639.17,201.58Z" style="fill:#fff"/><path d="M723.87,216.45a29,29,0,0,1-10.19-21.33h15.46a15.77,15.77,0,0,0,5.77,11.39,20.88,20.88,0,0,0,13.43,4.08A19.21,19.21,0,0,0,760,207.27a9.91,9.91,0,0,0,4.5-8.24,9.74,9.74,0,0,0-2.63-7.31,15.18,15.18,0,0,0-6.55-3.65q-5.37-1.41-10.87-2.29a95,95,0,0,1-14.87-3.49,20.61,20.61,0,0,1-9.68-7,23.27,23.27,0,0,1-4-14.61,21.74,21.74,0,0,1,8.5-17.84A34,34,0,0,1,746.3,136a36.51,36.51,0,0,1,23.62,7.39,25.78,25.78,0,0,1,9.85,19.46H764.31A13.58,13.58,0,0,0,758,152.56a21.3,21.3,0,0,0-11.72-3.48,17.44,17.44,0,0,0-10.71,3,9.54,9.54,0,0,0-4.07,8,8.15,8.15,0,0,0,4.67,8.24,55.1,55.1,0,0,0,14.36,3.48,88,88,0,0,1,15.46,3.4,21.64,21.64,0,0,1,10.19,7.56,25.65,25.65,0,0,1,4.25,15.89,22.64,22.64,0,0,1-8.75,18.69q-8.75,7-23.36,7A36.63,36.63,0,0,1,723.87,216.45Z" style="fill:#fff"/><path d="M201.63,174.73a2.14,2.14,0,0,0,.13-.19c.06-.09.13-.18.18-.27a.67.67,0,0,0,.09-.14l.05-.09.13-.26,0-.09a2.12,2.12,0,0,0,.11-.21l.09-.26c0-.1.07-.2.11-.31s.06-.18.08-.28a1.16,1.16,0,0,0,0-.18l0-.14a2.33,2.33,0,0,0,0-.28,2.36,2.36,0,0,0,0-.28c0-.1,0-.2,0-.3s0-.22,0-.32h0L202.61,61a6,6,0,0,0-3-5.18L104.48.81h0l-.23-.12L104,.55l-.3-.13-.28-.1-.25-.08-.34-.08-.32-.07-.21,0h-.05l-.33,0-.31,0h-.19l-.3,0a1.51,1.51,0,0,0-.3,0h-.09l-.21,0-.32.07a2.37,2.37,0,0,0-.34.08l-.25.08-.28.1L99,.55,98.7.69l-.21.1h0L3,55.87a6,6,0,0,0-3,5.2V171.13H0c0,.1,0,.21,0,.31s0,.2,0,.3a2.89,2.89,0,0,0,0,.29,2.74,2.74,0,0,0,.05.28l0,.14,0,.17.09.29c0,.1.07.2.1.3s.06.17.1.26a2.12,2.12,0,0,0,.11.21l0,.09a2.1,2.1,0,0,0,.13.26l0,.09.1.14c0,.09.11.18.17.27s.09.14.15.21a.08.08,0,0,0,0,0,2.09,2.09,0,0,0,.2.22c.07.08.13.16.21.24l.19.2.2.17a.52.52,0,0,0,.11.1,1.07,1.07,0,0,0,.16.14l.21.15.27.18.28.18s0,0,.05,0l95.47,52.24a6,6,0,0,0,5.77,0l95.36-52.24.05,0,.28-.17.26-.18c.07,0,.15-.09.22-.15l.16-.14.11-.1.2-.17.19-.2.21-.24a2.36,2.36,0,0,0,.2-.23ZM59.11,91.57,101.48,18l82.05,142.07,2.92,5.06h-170Zm131.68,57.1L117.89,22.43l72.73,42.08ZM85.07,22.39,12,148.77V64.53Zm16.4,194.15-72-39.41H173.4Z" style="fill:#fff"/></svg>