<svg width="767" height="171" viewBox="0 0 767 171" fill="none" xmlns="http://www.w3.org/2000/svg">
<path fill-rule="evenodd" clip-rule="evenodd" d="M88.8999 52.347L103.501 8.63272C105.356 2.96605 111.382 -0.387687 116.944 1.34701C122.738 2.85041 126.331 8.63271 124.94 14.415L114.742 59.5171C149.623 71.1973 173.727 88.0817 170.714 99.762C167.122 113.061 129.691 114.565 87.0458 103.116C44.4003 91.7824 12.7637 71.6599 16.3562 58.3606C16.7038 57.2041 17.3991 55.932 18.2103 55.0069C22.4981 49.2245 39.649 36.5035 78.7021 38.8164C70.7061 38.932 61.5512 42.7484 55.2934 47.6055C65.2595 48.0681 76.8479 49.8028 88.8999 52.347ZM89.5953 70.7348L109.643 10.7144C110.339 8.51707 112.54 7.12931 114.742 7.47625L97.0119 73.7416C93.6512 72.932 91.1018 71.7756 89.5953 70.7348Z" fill="white"/>
<path d="M8.12625 100.456C88.5502 134.803 151.823 124.626 170.481 108.667C168.047 113.408 164.918 119.191 162.369 123.932C159.008 130.061 153.677 134.687 147.188 137.347C145.102 138.157 142.552 139.429 140.003 140.354C122.157 146.946 101.413 149.721 77.8888 146.83C77.8888 146.83 88.8978 152.15 108.714 154C95.9668 159.667 82.8718 165.565 72.674 170.306C71.2834 171 69.7769 171 68.3863 170.653C66.9956 170.306 65.7209 169.497 65.0256 168.225C55.1754 154.116 40.5739 134.687 28.9855 119.653C18.3241 113.177 7.7786 105.082 0.941406 97.2178C3.2591 98.2586 5.4609 99.2994 8.12625 100.456Z" fill="white"/>
<path d="M251.255 130.292C243.838 130.292 236.885 129.136 230.396 126.707C223.674 124.278 218.228 121.04 213.824 116.761L227.383 100.802C233.641 106.7 242.216 109.476 252.877 109.476C257.513 109.476 261.337 108.666 264.234 107.163C267.131 105.544 268.638 103.462 268.638 100.918C268.638 96.8703 264.234 94.4417 255.195 93.6322C244.765 92.5914 237.117 90.0472 232.134 86.1152C227.267 82.1832 224.949 76.5166 224.949 69.1152C224.949 60.5574 228.657 53.503 236.19 47.9519C243.722 42.2853 253.225 39.5098 264.698 39.5098C277.445 39.5098 287.759 42.8635 295.639 49.571L283.007 64.7206C277.793 60.7887 270.955 58.9383 262.264 58.9383C257.86 58.9383 254.5 59.6322 251.95 61.1356C249.401 62.5234 248.01 64.3737 248.01 66.571C248.01 70.8499 252.53 73.3941 261.569 74.2036C271.303 75.1288 278.835 77.673 283.934 81.8363C289.149 85.9995 291.815 91.4349 291.815 98.2581C291.815 107.741 288.106 115.374 280.69 121.272C273.389 127.517 263.539 130.292 251.255 130.292Z" fill="white"/>
<path d="M351.842 41.9385C360.765 41.9385 368.066 44.367 373.281 49.2242C378.496 54.0813 381.161 60.5575 381.161 68.884C381.161 79.6391 377.453 88.197 369.92 94.9044C362.503 101.496 352.769 104.85 340.717 104.85H322.987L318.931 128.326H295.059L310.239 42.0541H351.842V41.9385ZM344.425 84.4963C348.018 84.4963 351.147 83.3398 353.696 80.7956C356.246 78.367 357.636 75.1289 357.636 71.3126C357.636 68.5371 356.825 66.3398 355.087 64.7208C353.349 63.1017 351.031 62.2922 348.134 62.2922H330.172L326.232 84.4963H344.425Z" fill="white"/>
<path d="M378.379 128.211L393.56 41.9385H417.316L402.135 128.211H378.379Z" fill="white"/>
<path d="M486.039 41.9385H509.563L494.382 128.211H473.755L447.101 79.9861L443.857 100.571L438.989 128.211H415.465L430.646 41.9385H451.041L477.811 90.9725L481.171 69.5779L486.039 41.9385Z" fill="white"/>
<path d="M591.144 41.9385L587.552 62.2922H561.941L550.469 128.211H526.596L538.069 62.2922H512.574L516.167 41.9385H591.144Z" fill="white"/>
<path d="M624.865 130.293C610.611 130.293 599.834 126.014 592.185 117.456C584.653 108.898 581.988 97.9117 584.421 84.4967C586.971 70.2722 592.997 59.1702 602.499 51.4219C612.002 43.5579 624.17 39.626 638.771 39.626C653.141 39.626 664.034 43.9049 671.566 52.4627C679.099 60.9049 681.764 71.8913 679.331 85.4219C676.781 99.6464 670.755 110.748 661.137 118.497C651.634 126.476 639.582 130.293 624.865 130.293ZM627.183 109.823C634.599 109.823 640.857 107.51 645.956 103C651.171 98.4899 654.416 92.245 655.922 84.4967C657.313 77.0953 656.154 71.1974 652.561 66.8028C649.085 62.4083 643.638 60.0954 636.337 60.0954C628.921 60.0954 622.779 62.4083 617.564 67.0341C612.349 71.5443 609.105 77.5579 607.83 85.4219C606.439 92.8232 607.598 98.7212 611.075 103.116C614.667 107.742 619.998 109.823 627.183 109.823Z" fill="white"/>
<path d="M737.276 41.9385C746.199 41.9385 753.499 44.367 758.714 49.2242C763.929 54.0813 766.594 60.5575 766.594 68.884C766.594 79.6391 762.886 88.197 755.354 94.9044C747.937 101.496 738.203 104.85 726.151 104.85H708.42L704.364 128.326H680.492L695.673 42.0541H737.276V41.9385ZM729.975 84.4963C733.567 84.4963 736.696 83.3398 739.246 80.7956C741.795 78.367 743.186 75.1289 743.186 71.3126C743.186 68.5371 742.375 66.3398 740.636 64.7208C738.898 63.1017 736.58 62.2922 733.683 62.2922H715.837L711.897 84.4963H729.975Z" fill="white"/>
</svg>
